# xmcd
#
# Track frame offsets: 
#        150
#        13248
#        31070
#        44615
#        69290
#        84107
#        99894
#        111705
#        123233
#        137441
#        156151
#        169372
#        184935
#        195928
#        208873
#        232076
#        246335
#        258743
#        277484
#        291990
#        307436
#        323004
#        344671
#
# Disc length: 4781 seconds
#
# Revision: 0
# Processed by: cddbd v1.5.2PL0 Copyright (c) Steve Scherf et al.
# Submitted via: ExactAudioCopyFreeDBPlugin 1.0
#
DISCID=6812ab17
DTITLE=Various Artist - It's a Blues Thing: CD1
DYEAR=2012
DGENRE=Blues
TTITLE0=Elmore James - Dust My Broom
TTITLE1=Muddy Waters - I'm Your Hoochie Coochie Man 
TTITLE2=Koko Taylor - Wang Dang Doodle 
TTITLE3=Etta James - Crawlin' King Snake
TTITLE4=The Animals - Boom Boom 
TTITLE5=Manfred Mann - Smokestack Lightning 
TTITLE6=The Yardbirds - I'm A Man 
TTITLE7=John Mayall and The Bluesbreakers - Little Girl 
TTITLE8=Alexis Korner's Blues Incorporated - I Got My Mojo Working 
TTITLE9=Savoy Brown - Train To Nowhere
TTITLE10=Ten Years After - Rock Your Mama 
TTITLE11=Fleetwood Mac - Need Your Love Tonight 
TTITLE12=The Paul Butterfield Blues Band - Look Over Yonders Wall 
TTITLE13=Canned Heat - Let's Work Together 
TTITLE14=Ronnie Hawkins - Down In The Alley 
TTITLE15=Johnny Winter - Rollin' and Tumblin' 
TTITLE16=Albert King - Born Under A Bad Sign 
TTITLE17=The Electric Flag - Killing Floor 
TTITLE18=Masters Apprentices - I'm Your Satisfier 
TTITLE19=The La De Das - I'm Ready 
TTITLE20=Buffalo  - Lucky 
TTITLE21=Chain  - Black and Blue 
TTITLE22=Rose Tattoo - Bad Boy For Love 
EXTD=
EXTT0=
EXTT1=
EXTT2=
EXTT3=
EXTT4=
EXTT5=
EXTT6=
EXTT7=
EXTT8=
EXTT9=
EXTT10=
EXTT11=
EXTT12=
EXTT13=
EXTT14=
EXTT15=
EXTT16=
EXTT17=
EXTT18=
EXTT19=
EXTT20=
EXTT21=
EXTT22=
PLAYORDER=
